<?xml version="1.0" standalone="no"?>
<!DOCTYPE svg PUBLIC "-//W3C//DTD SVG 20010904//EN"
 "http://www.w3.org/TR/2001/REC-SVG-20010904/DTD/svg10.dtd">
<svg version="1.0" xmlns="http://www.w3.org/2000/svg"
 width="135.000000pt" height="150.000000pt" viewBox="0 0 135.000000 150.000000"
 preserveAspectRatio="xMidYMid meet">

<g transform="translate(0.000000,150.000000) scale(0.100000,-0.100000)"
fill="#000000" stroke="none">
<path d="M607 1446 c-21 -8 -79 -38 -130 -67 -365 -208 -405 -238 -426 -316
-15 -51 -14 -556 0 -607 19 -69 79 -117 313 -251 241 -138 289 -156 362 -137
42 11 178 86 416 229 90 53 113 72 135 111 l28 47 3 282 c4 323 0 345 -61 409
-37 37 -313 206 -465 283 -56 28 -126 35 -175 17z m177 -51 c119 -63 411 -236
435 -258 13 -12 32 -40 42 -62 17 -36 19 -69 19 -313 0 -340 -3 -351 -130
-426 -276 -164 -410 -236 -446 -242 -57 -9 -94 5 -243 91 -346 199 -342 196
-372 260 -17 36 -19 69 -19 313 0 360 -6 347 195 464 66 39 163 95 215 126
161 95 202 101 304 47z"/>
<path d="M415 1254 c-121 -69 -236 -141 -255 -160 l-35 -34 -3 -282 c-2 -198
1 -290 9 -310 18 -45 61 -76 284 -203 276 -158 245 -158 511 -6 228 130 258
151 285 195 17 28 19 53 19 304 0 291 -2 302 -52 349 -12 12 -122 78 -243 147
-182 105 -226 126 -260 126 -34 0 -78 -21 -260 -126z m215 -12 c15 -12 21 -24
16 -38 -4 -11 -78 -60 -191 -124 l-185 -105 0 -87 0 -88 180 0 180 0 12 -26
c11 -23 10 -29 -11 -45 -21 -17 -42 -19 -192 -19 l-169 0 0 -70 0 -70 169 0
c150 0 171 -2 192 -19 21 -16 22 -22 11 -45 l-12 -26 -213 0 c-152 0 -216 3
-225 12 -9 9 -12 82 -12 269 0 226 2 258 16 270 19 16 395 228 405 229 4 0 17
-8 29 -18z m350 -110 c196 -113 216 -133 169 -165 -27 -19 -22 -21 -199 80
-80 46 -148 83 -152 83 -5 0 -8 -74 -8 -165 l0 -165 178 0 c125 0 182 -4 190
-12 8 -8 12 -56 12 -148 0 -92 -4 -140 -12 -148 -9 -9 -73 -12 -225 -12 -199
0 -213 1 -223 19 -12 24 -4 48 21 61 10 6 92 10 183 10 l166 0 0 70 0 70 -170
0 c-157 0 -172 2 -190 20 -19 19 -20 33 -20 259 0 326 -20 316 280 143z"/>
</g>
</svg>
