<?xml version="1.0" standalone="no"?>
<!DOCTYPE svg PUBLIC "-//W3C//DTD SVG 20010904//EN"
 "http://www.w3.org/TR/2001/REC-SVG-20010904/DTD/svg10.dtd">
<svg version="1.0" xmlns="http://www.w3.org/2000/svg"
 width="711.000000pt" height="711.000000pt" viewBox="0 0 711.000000 711.000000"
 preserveAspectRatio="xMidYMid meet">

<g transform="translate(0.000000,711.000000) scale(0.100000,-0.100000)"
fill="#000000" stroke="none">
<path d="M6310 5207 c0 -9 60 -117 66 -117 5 0 -38 85 -55 110 -6 8 -11 12
-11 7z"/>
<path d="M6380 5071 c0 -6 4 -13 10 -16 6 -3 7 1 4 9 -7 18 -14 21 -14 7z"/>
<path d="M6400 5038 c0 -4 9 -22 19 -40 27 -46 116 -256 145 -342 39 -113 84
-268 93 -311 4 -22 8 -42 8 -45 18 -69 43 -211 50 -275 3 -27 8 -68 10 -90 3
-22 7 -137 9 -255 4 -198 -1 -287 -29 -535 -12 -103 -121 -508 -146 -540 -4
-6 -10 -22 -13 -35 -13 -66 -89 -249 -121 -290 -6 -8 -17 -34 -24 -57 -6 -24
-15 -43 -20 -43 -4 0 -18 -24 -31 -52 -13 -29 -30 -60 -38 -70 -7 -9 -25 -38
-40 -65 -35 -63 -120 -191 -150 -223 -13 -14 -31 -37 -40 -52 -9 -16 -20 -28
-24 -28 -4 0 -8 -7 -8 -15 0 -8 -23 -41 -51 -72 -118 -134 -175 -197 -198
-217 -13 -12 -51 -48 -84 -81 -33 -33 -61 -59 -64 -57 -3 2 -77 -55 -112 -88
-9 -8 -59 -46 -111 -85 -52 -38 -108 -80 -125 -92 -16 -13 -48 -33 -70 -44
-22 -12 -53 -32 -70 -44 -52 -39 -315 -177 -370 -195 -22 -7 -51 -18 -65 -26
-50 -26 -191 -74 -200 -69 -6 4 -10 1 -10 -4 0 -6 -3 -10 -7 -10 -5 1 -10 0
-13 -1 -10 -3 -36 -9 -69 -15 -19 -4 -46 -12 -60 -18 -14 -5 -28 -11 -31 -12
-3 0 -30 -7 -60 -15 -30 -8 -61 -13 -69 -11 -8 1 -17 -2 -21 -8 -3 -6 -26 -13
-51 -15 -24 -2 -66 -9 -94 -14 -52 -11 -123 -19 -260 -30 -151 -11 -507 -4
-585 11 -14 3 -51 8 -83 11 -32 3 -62 8 -68 11 -10 7 -25 10 -85 19 -117 19
-165 29 -170 37 -3 5 -14 9 -26 9 -11 0 -61 14 -112 31 -50 17 -101 32 -113
33 -12 2 -38 11 -58 20 -20 10 -43 19 -53 21 -22 4 -83 29 -147 60 -27 13 -86
40 -130 61 -44 20 -82 40 -85 43 -3 3 -16 12 -29 19 -13 8 -38 22 -55 31 -17
10 -47 29 -67 42 -20 13 -50 32 -65 41 -38 23 -63 40 -83 56 -70 56 -222 172
-225 172 -2 0 -21 16 -40 35 -20 19 -40 35 -44 35 -13 0 -77 61 -75 71 2 5 -2
9 -7 9 -13 0 -151 139 -218 219 -26 31 -55 65 -65 76 -10 11 -35 46 -54 78
-20 31 -40 57 -44 57 -5 0 -9 5 -9 10 0 6 -10 21 -23 33 -13 12 -35 43 -50 70
-16 26 -32 47 -36 47 -5 0 -11 8 -15 18 -3 9 -10 25 -16 35 -5 9 -15 25 -20
35 -6 9 -13 25 -16 35 -4 9 -10 17 -14 17 -4 0 -13 15 -21 32 -7 18 -21 45
-30 59 -10 14 -16 29 -12 33 3 3 1 6 -5 6 -6 0 -16 17 -23 38 -6 20 -29 70
-51 111 -21 40 -54 117 -72 170 -18 53 -46 130 -61 171 -15 41 -31 91 -36 110
-4 19 -21 89 -37 155 -56 227 -79 454 -76 760 1 175 10 284 29 388 7 37 10 67
6 67 -4 0 -15 -51 -24 -112 -55 -367 -50 -720 12 -1078 138 -784 595 -1518
1248 -2002 935 -693 2188 -826 3243 -344 845 386 1486 1118 1750 1999 94 315
132 578 133 922 0 307 -25 517 -98 805 -28 111 -115 370 -149 444 -13 28 -40
86 -59 128 -33 72 -67 131 -67 116z"/>
<path d="M2062 4854 c-218 -36 -428 -144 -595 -303 -165 -157 -280 -354 -339
-576 -29 -113 -31 -131 -32 -305 -1 -204 11 -283 66 -440 50 -142 132 -288
184 -329 61 -48 162 -12 183 65 12 44 3 75 -44 148 -207 324 -204 782 8 1096
130 192 327 333 547 392 120 31 317 32 445 0 421 -105 698 -513 621 -915 -53
-276 -228 -483 -481 -568 -93 -32 -299 -35 -385 -5 -209 71 -357 218 -404 402
-20 78 -20 203 -1 279 59 223 280 379 491 345 249 -41 383 -290 257 -480 -64
-97 -212 -120 -273 -43 -30 38 -25 60 15 77 40 17 75 68 75 111 0 43 -35 94
-77 111 -91 38 -223 -49 -258 -170 -43 -148 33 -304 183 -378 63 -31 72 -33
177 -33 105 0 113 2 180 34 259 127 345 469 185 735 -68 113 -210 219 -349
260 -151 44 -311 27 -471 -51 -78 -38 -109 -60 -176 -127 -143 -143 -203 -285
-211 -496 -10 -250 57 -420 232 -595 104 -103 193 -158 331 -204 513 -171
1047 143 1187 699 31 123 31 351 0 466 -116 426 -444 725 -877 799 -108 18
-282 18 -394 -1z"/>
<path d="M4550 4864 c-211 -40 -354 -112 -499 -249 -92 -88 -149 -167 -206
-288 -133 -280 -133 -583 -1 -863 59 -125 115 -204 210 -300 299 -301 758
-399 1174 -252 160 56 284 132 409 251 245 233 377 546 376 897 0 217 -42 390
-140 584 -100 195 -174 239 -266 157 -28 -26 -32 -35 -32 -83 0 -44 6 -61 34
-101 47 -68 108 -203 133 -294 30 -108 33 -413 5 -513 -46 -163 -109 -282
-211 -402 -238 -278 -626 -388 -976 -276 -151 48 -295 144 -390 261 -63 77
-144 239 -165 331 -9 39 -16 113 -16 166 0 541 521 896 980 668 275 -137 394
-457 267 -723 -62 -131 -164 -214 -307 -251 -262 -67 -524 168 -444 397 46
130 158 195 258 151 74 -33 91 -92 33 -116 -46 -19 -66 -52 -66 -106 0 -129
149 -161 259 -57 113 108 108 298 -12 421 -198 201 -541 127 -670 -146 -105
-219 -64 -440 114 -619 128 -130 275 -185 469 -176 181 8 313 68 445 201 92
93 150 193 186 322 31 109 31 294 1 407 -42 155 -137 300 -267 410 -79 66
-234 146 -335 172 -63 16 -297 29 -350 19z"/>
<path d="M446 4349 c-9 -39 -15 -73 -13 -75 2 -3 12 27 21 67 10 39 16 73 14
75 -3 2 -12 -28 -22 -67z"/>
<path d="M422 4240 c0 -14 2 -19 5 -12 2 6 2 18 0 25 -3 6 -5 1 -5 -13z"/>
<path d="M410 4195 c0 -8 2 -15 4 -15 2 0 6 7 10 15 3 8 1 15 -4 15 -6 0 -10
-7 -10 -15z"/>
<path d="M4545 2106 c-91 -25 -126 -42 -280 -134 -154 -93 -204 -111 -295
-112 -98 0 -146 14 -326 93 -203 89 -269 108 -390 114 -89 5 -113 2 -193 -21
-50 -14 -140 -51 -201 -81 -135 -68 -213 -89 -287 -80 -74 9 -212 80 -299 153
-39 33 -87 65 -107 71 -99 33 -195 -58 -167 -159 27 -98 279 -274 457 -319
169 -43 300 -21 535 91 222 105 262 104 532 -17 260 -116 427 -146 586 -105
97 25 149 49 317 148 143 85 186 102 262 102 75 0 135 -30 240 -121 93 -80
139 -103 184 -93 86 19 128 97 97 179 -14 37 -114 139 -185 190 -82 58 -137
85 -220 106 -91 24 -161 23 -260 -5z"/>
</g>
</svg>
